<?xml version="1.0" ?><!DOCTYPE svg  PUBLIC '-//W3C//DTD SVG 1.1//EN'  'http://www.w3.org/Graphics/SVG/1.1/DTD/svg11.dtd'><svg enable-background="new 0 0 141.73 141.73" height="141.73px" id="Warstwa_1" version="1.1" viewBox="0 0 141.73 141.73" width="141.73px" xml:space="preserve" xmlns="http://www.w3.org/2000/svg" xmlns:xlink="http://www.w3.org/1999/xlink"><g><path d="M101.648,40.093c-8.22-8.22-19.149-12.747-30.773-12.747s-22.553,4.526-30.772,12.746   S27.355,59.24,27.355,70.865s4.527,22.554,12.747,30.773s19.149,12.746,30.774,12.746c11.624,0,22.553-4.526,30.772-12.746   C118.617,84.67,118.616,57.061,101.648,40.093z M100.235,100.225c-7.842,7.842-18.269,12.16-29.358,12.16   c-11.091,0-21.518-4.318-29.36-12.16c-7.842-7.843-12.161-18.269-12.161-29.359s4.319-21.517,12.161-29.359   c7.842-7.842,18.269-12.16,29.358-12.16s21.517,4.319,29.359,12.161C116.423,57.695,116.423,84.036,100.235,100.225z" fill="#575756"/><path d="M82.921,55.985c-0.391-0.391-1.023-0.391-1.414,0L67.333,70.16c-0.391,0.391-0.391,1.023,0,1.414   l14.173,14.173c0.195,0.195,0.451,0.293,0.707,0.293s0.512-0.098,0.707-0.293c0.391-0.391,0.391-1.023,0-1.414L69.454,70.867   l13.467-13.468C83.312,57.009,83.312,56.376,82.921,55.985z" fill="#575756"/><path d="M55.281,70.867l13.467-13.468c0.391-0.391,0.391-1.023,0-1.414s-1.023-0.391-1.414,0L53.16,70.16   c-0.391,0.391-0.391,1.023,0,1.414l14.173,14.173c0.195,0.195,0.451,0.293,0.707,0.293s0.512-0.098,0.707-0.293   c0.391-0.391,0.391-1.023,0-1.414L55.281,70.867z" fill="#575756"/></g></svg>