<?xml version="1.0" ?><!DOCTYPE svg  PUBLIC '-//W3C//DTD SVG 1.1//EN'  'http://www.w3.org/Graphics/SVG/1.1/DTD/svg11.dtd'><svg enable-background="new 0 0 141.73 141.73" height="141.73px" id="Warstwa_1" version="1.1" viewBox="0 0 141.73 141.73" width="141.73px" xml:space="preserve" xmlns="http://www.w3.org/2000/svg" xmlns:xlink="http://www.w3.org/1999/xlink"><g><path d="M70.865,27.346c-23.997,0-43.52,19.522-43.52,43.519c0,23.997,19.523,43.521,43.52,43.521   c23.999-0.001,43.52-19.524,43.52-43.521S94.863,27.346,70.865,27.346z M70.865,112.385c-22.894,0-41.52-18.626-41.52-41.521   c0-22.894,18.626-41.519,41.52-41.519c22.895,0,41.52,18.625,41.52,41.519S93.76,112.384,70.865,112.385z" fill="#575756"/><path d="M87.873,69.865H56.271l12.466-12.467c0.391-0.391,0.391-1.023,0-1.414s-1.023-0.391-1.414,0L53.151,70.157   c-0.092,0.092-0.166,0.201-0.216,0.323c-0.05,0.12-0.078,0.251-0.078,0.385s0.027,0.265,0.078,0.385   c0.051,0.122,0.125,0.231,0.216,0.323l14.172,14.172c0.195,0.195,0.451,0.293,0.707,0.293s0.512-0.098,0.707-0.293   c0.391-0.391,0.391-1.023,0-1.414L56.271,71.865h31.602c0.553,0,1-0.447,1-1S88.426,69.865,87.873,69.865z" fill="#575756"/></g></svg>