<?xml version="1.0" ?><!DOCTYPE svg  PUBLIC '-//W3C//DTD SVG 1.1//EN'  'http://www.w3.org/Graphics/SVG/1.1/DTD/svg11.dtd'><svg enable-background="new 0 0 141.73 141.73" height="141.73px" id="Warstwa_1" version="1.1" viewBox="0 0 141.73 141.73" width="141.73px" xml:space="preserve" xmlns="http://www.w3.org/2000/svg" xmlns:xlink="http://www.w3.org/1999/xlink"><g><path d="M101.639,40.091c-8.219-8.219-19.146-12.745-30.771-12.745s-22.555,4.526-30.774,12.747   c-8.22,8.22-12.747,19.148-12.747,30.772s4.526,22.553,12.746,30.772s19.149,12.747,30.773,12.747   c11.625,0,22.553-4.526,30.772-12.746s12.747-19.148,12.747-30.773C114.386,59.24,109.858,48.311,101.639,40.091z M100.224,100.225   c-7.842,7.842-18.268,12.16-29.358,12.16c-11.09,0-21.517-4.319-29.359-12.161c-7.842-7.842-12.16-18.269-12.16-29.358   s4.319-21.516,12.161-29.358c7.843-7.843,18.27-12.161,29.36-12.161s21.517,4.318,29.357,12.159   c7.842,7.842,12.161,18.27,12.16,29.36C112.385,81.956,108.065,92.383,100.224,100.225z" fill="#575756"/><path d="M65.195,55.692c-0.553,0-1,0.447-1,1v28.346c0,0.553,0.447,1,1,1s1-0.447,1-1V56.692   C66.195,56.14,65.748,55.692,65.195,55.692z" fill="#575756"/><path d="M76.534,55.692c-0.553,0-1,0.447-1,1v28.346c0,0.553,0.447,1,1,1s1-0.447,1-1V56.692   C77.534,56.14,77.087,55.692,76.534,55.692z" fill="#575756"/></g></svg>