<?xml version="1.0" ?><!DOCTYPE svg  PUBLIC '-//W3C//DTD SVG 1.1//EN'  'http://www.w3.org/Graphics/SVG/1.1/DTD/svg11.dtd'><svg enable-background="new 0 0 141.73 141.73" height="141.73px" id="Warstwa_1" version="1.1" viewBox="0 0 141.73 141.73" width="141.73px" xml:space="preserve" xmlns="http://www.w3.org/2000/svg" xmlns:xlink="http://www.w3.org/1999/xlink"><g><path d="M70.865,27.346c-23.997,0-43.52,19.523-43.52,43.521c0,23.996,19.523,43.519,43.52,43.519   c23.999,0,43.52-19.522,43.52-43.519C114.385,46.869,94.863,27.346,70.865,27.346z M70.865,112.385   c-22.894,0-41.52-18.625-41.52-41.519c0-22.895,18.626-41.521,41.52-41.521c22.895,0,41.52,18.626,41.52,41.521   C112.385,93.76,93.76,112.385,70.865,112.385z" fill="#575756"/><path d="M88.797,70.483c-0.051-0.123-0.125-0.233-0.217-0.326L74.406,55.985c-0.391-0.391-1.023-0.391-1.414,0   s-0.391,1.023,0,1.414l12.467,12.466H53.857c-0.552,0-1,0.447-1,1s0.448,1,1,1h31.602L72.994,84.332   c-0.391,0.391-0.391,1.023,0,1.414c0.195,0.195,0.451,0.293,0.707,0.293s0.512-0.098,0.707-0.293L88.58,71.573   c0.092-0.093,0.166-0.203,0.217-0.326C88.898,71.003,88.898,70.728,88.797,70.483z" fill="#575756"/></g></svg>